<svg width="200" height="71" viewBox="0 0 200 71" fill="none" xmlns="http://www.w3.org/2000/svg">
<g clip-path="url(#clip0)">
<path d="M43.0009 34.2734C54.6761 20.9973 51.634 17.9745 52.6617 16.4222C53.2784 15.5235 57.266 16.5856 58.3349 19.8944C61.2537 28.8813 49.0441 37.4188 45.8375 47.3861C39.6299 66.9529 71.819 60.0494 80.9865 37.8273C89.9485 16.1771 77.9032 6.57747 60.6371 9.72288C43.5764 12.8274 35.6833 35.2129 22.1581 39.9515C8.67407 44.69 0.369853 37.092 -0.000136804 31.128C-0.246797 27.4924 9.00295 37.7456 26.8447 24.4287C42.5898 12.7049 50.2362 1.87978 71.3668 0.164106C92.9906 -1.63327 102.734 14.4614 99.9793 27.2881C94.1006 54.6573 58.4582 75.1637 39.4243 70.0167C24.8714 66.0134 26.1458 53.4318 43.0009 34.2734ZM199.465 33.9057C200.945 30.842 199.26 29.2898 196.875 32.2718C195.313 34.1917 188.407 42.9743 179.157 41.3812C170.154 39.8289 170.442 29.494 170.812 29.4123C185.488 27.5741 193.998 14.4206 186.064 9.51863C180.843 6.29152 168.674 8.74249 163.042 24.9597C161.85 24.7963 159.548 24.0202 158.273 23.0398C161.439 12.2147 153.34 12.4598 152.436 17.566C151.613 22.2228 154.738 21.9777 152.477 26.7571C149.846 32.3535 145.94 38.9711 142.775 37.8273C138.705 36.3567 145.776 24.5921 141.953 21.1199C137.8 17.3209 130.935 25.5316 126.166 28.3911C121.439 16.8307 107.461 24.3061 102.734 32.5577C99.0338 39.0528 99.6504 48.2439 106.187 50.2864C116.3 53.4318 125.303 43.4237 126.947 32.1084C129.578 30.1476 133.032 26.3078 134.306 28.5953C136.074 31.7407 128.839 42.525 135.498 45.9155C140.062 48.2439 148.571 44.3224 156.752 27.1247C158.438 28.0234 160.082 28.6362 161.973 29.0038C159.671 53.8403 189.64 54.1671 199.465 33.9057ZM121.809 33.3747C121.685 35.6214 116.711 46.0789 111.572 43.6688C108.037 41.9939 108.201 32.8028 116.711 28.146C116.67 31.1688 119.548 33.0888 121.809 33.3747ZM182.775 13.7261C185.529 16.5856 178.664 23.7342 171.141 25.0414C172.826 16.749 179.979 10.8258 182.775 13.7261Z" fill="#4A3024"/>
<path d="M190.051 7.31188C190.051 5.31026 191.696 3.79883 193.628 3.79883C195.56 3.79883 197.204 5.26941 197.204 7.31188C197.204 9.35435 195.56 10.8249 193.628 10.8249C191.696 10.8249 190.051 9.35435 190.051 7.31188ZM193.628 10.253C195.231 10.253 196.464 9.02756 196.464 7.31188C196.464 5.63705 195.19 4.41157 193.628 4.41157C192.025 4.41157 190.75 5.6779 190.75 7.31188C190.75 8.98671 192.025 10.253 193.628 10.253ZM192.888 9.35435H192.271V5.31026H193.833C194.779 5.31026 195.272 5.6779 195.272 6.45404C195.272 7.18933 194.82 7.47528 194.203 7.55698L195.355 9.35435H194.656L193.587 7.59783H192.888V9.35435ZM193.628 7.06678C194.162 7.06678 194.615 7.02593 194.615 6.41319C194.615 5.923 194.162 5.80045 193.71 5.80045H192.888V7.06678H193.628Z" fill="#4A3024"/>
<path d="M104.625 67.0337C104.625 64.8687 106.31 63.1938 108.777 63.1938C109.764 63.1938 110.504 63.4389 111.079 63.8066L110.545 65.3997C110.134 65.1546 109.517 64.8687 108.859 64.8687C107.42 64.8687 106.639 65.8491 106.639 66.9929C106.639 68.1366 107.42 69.1579 108.859 69.1579C109.517 69.1579 110.175 68.9128 110.586 68.6268L111.12 70.22C110.545 70.5876 109.764 70.8327 108.818 70.8327C106.269 70.8735 104.625 69.1987 104.625 67.0337Z" fill="#4A3024"/>
<path d="M121.069 70.7512H119.137V67.8509H116.341V70.7512H114.409V63.3574H116.341V66.2169H119.137V63.3574H121.069V70.7512Z" fill="#4A3024"/>
<path d="M124.44 67.0337C124.44 64.9095 126.084 63.1938 128.551 63.1938C131.018 63.1938 132.662 64.8687 132.662 67.0337C132.662 69.1987 131.018 70.8736 128.551 70.8736C126.084 70.8736 124.44 69.1987 124.44 67.0337ZM126.413 67.0337C126.413 68.3 127.277 69.1987 128.551 69.1987C129.825 69.1987 130.689 68.3 130.689 67.0337C130.689 65.8082 129.825 64.9095 128.551 64.9095C127.277 64.9095 126.413 65.8082 126.413 67.0337Z" fill="#4A3024"/>
<path d="M135.622 67.0337C135.622 64.8687 137.307 63.1938 139.774 63.1938C140.761 63.1938 141.501 63.4389 142.076 63.8066L141.542 65.3997C141.131 65.1546 140.514 64.8687 139.856 64.8687C138.417 64.8687 137.636 65.8491 137.636 66.9929C137.636 68.1366 138.417 69.1579 139.856 69.1579C140.514 69.1579 141.172 68.9128 141.583 68.6268L142.117 70.22C141.542 70.5876 140.761 70.8327 139.815 70.8327C137.225 70.8735 135.622 69.1987 135.622 67.0337Z" fill="#4A3024"/>
<path d="M145.036 67.0337C145.036 64.9095 146.68 63.1938 149.147 63.1938C151.614 63.1938 153.258 64.8687 153.258 67.0337C153.258 69.1987 151.614 70.8736 149.147 70.8736C146.68 70.8736 145.036 69.1987 145.036 67.0337ZM147.009 67.0337C147.009 68.3 147.873 69.1987 149.147 69.1987C150.421 69.1987 151.285 68.3 151.285 67.0337C151.285 65.8082 150.421 64.9095 149.147 64.9095C147.873 64.9095 147.009 65.8082 147.009 67.0337Z" fill="#4A3024"/>
<path d="M156.588 70.7512V63.3574H158.52V69.1172H160.863V70.7512H156.588Z" fill="#4A3024"/>
<path d="M165.961 69.0763L165.385 70.7512H163.453L166.166 63.3574H168.181L170.894 70.7512H168.962L168.386 69.0763H165.961ZM167.194 65.2365L166.454 67.5649H167.934L167.194 65.2365Z" fill="#4A3024"/>
<path d="M176.485 64.9504V70.7102H174.553V64.9504H172.867V63.3164H178.171V64.9504H176.485Z" fill="#4A3024"/>
<path d="M181.418 70.7512V63.3574H185.612V64.9914H183.35V66.2169H185.283V67.81H183.35V69.1172H185.694V70.7512H181.418Z" fill="#4A3024"/>
</g>
<defs>
<clipPath id="clip0">
<rect width="200" height="70.8738" fill="white"/>
</clipPath>
</defs>
</svg>
